<svg width="197" height="34" viewBox="0 0 197 34" fill="none" xmlns="http://www.w3.org/2000/svg">
<path d="M61.7542 5.848V24.7644C61.7542 25.7782 61.6091 26.6684 61.3188 27.4349C61.0285 28.2262 60.6294 28.8938 60.1215 29.4378C59.6135 30.0065 58.9967 30.4269 58.271 30.6989C57.5453 30.9956 56.7471 31.144 55.8763 31.144H47.5674V27.0269H55.1869C55.9368 27.0269 56.5536 26.792 57.0374 26.3222C57.5453 25.8524 57.7993 25.1971 57.7993 24.3564V24.1338H52.3931C51.5949 24.1338 50.8329 23.9978 50.1073 23.7258C49.4058 23.4291 48.789 22.9964 48.2568 22.4276C47.7247 21.8589 47.3014 21.1665 46.9869 20.3505C46.6724 19.5098 46.5152 18.5455 46.5152 17.4575V12.5244C46.5152 11.4364 46.6724 10.4844 46.9869 9.66837C47.3014 8.82764 47.7247 8.12291 48.2568 7.55418C48.789 6.98546 49.4058 6.56509 50.1073 6.29309C50.8329 5.99637 51.5949 5.848 52.3931 5.848H61.7542ZM57.763 9.96509H53.3002C52.9374 9.96509 52.5987 10.0516 52.2843 10.2247C51.9698 10.3731 51.6916 10.5956 51.4497 10.8924C51.2079 11.1644 51.0144 11.4735 50.8692 11.8196C50.7241 12.1658 50.6515 12.5491 50.6515 12.9695V16.9753C50.6515 17.3956 50.7241 17.7913 50.8692 18.1622C51.0144 18.5331 51.2079 18.8545 51.4497 19.1265C51.6916 19.3985 51.9698 19.6211 52.2843 19.7942C52.5987 19.9425 52.9374 20.0167 53.3002 20.0167H57.763V9.96509Z" fill="#7B13FF"/>
<path d="M64.0882 11.8196C64.1608 11.0284 64.3301 10.2742 64.5962 9.55709C64.8865 8.84 65.2977 8.20946 65.8298 7.66546C66.362 7.12146 67.0272 6.68873 67.8254 6.36727C68.6237 6.02109 69.5428 5.848 70.583 5.848H72.76C73.8485 5.848 74.7918 6.03346 75.5901 6.40437C76.4125 6.77527 77.0898 7.26982 77.6219 7.888C78.1541 8.48146 78.5532 9.17382 78.8193 9.96509C79.0854 10.7316 79.2184 11.5105 79.2184 12.3018V24.7273H68.9139C68.1157 24.7273 67.4021 24.5789 66.7732 24.2822C66.1443 23.9607 65.6121 23.5527 65.1767 23.0582C64.7655 22.5389 64.4511 21.9331 64.2334 21.2407C64.0399 20.5484 63.9431 19.8065 63.9431 19.0153C63.9431 18.2487 64.052 17.5316 64.2697 16.864C64.4874 16.1964 64.8018 15.6276 65.213 15.1578C65.6242 14.6633 66.1322 14.28 66.7369 14.008C67.3658 13.7113 68.0673 13.5629 68.8414 13.5629H75.0458V13.192C75.0458 12.7469 75.0095 12.3389 74.937 11.968C74.8644 11.5724 74.7314 11.2385 74.5378 10.9665C74.3443 10.6945 74.0541 10.4844 73.667 10.336C73.28 10.1629 72.76 10.0764 72.1069 10.0764H71.1998C70.2322 10.0764 69.5428 10.2247 69.1316 10.5215C68.7204 10.7935 68.4422 11.2262 68.2971 11.8196H64.0882ZM67.8254 19.0153C67.8254 19.6582 67.9464 20.1404 68.1883 20.4618C68.4543 20.7585 68.7446 20.9069 69.0591 20.9069H75.0458V17.1236H69.0591C68.7446 17.1236 68.4543 17.2844 68.1883 17.6058C67.9464 17.9273 67.8254 18.3971 67.8254 19.0153Z" fill="#7B13FF"/>
<path d="M100.712 10.0764C100.083 10.0764 99.5748 10.1629 99.1878 10.336C98.8008 10.4844 98.4984 10.6945 98.2807 10.9665C98.0872 11.2385 97.9542 11.56 97.8816 11.9309C97.8091 12.3018 97.7728 12.7098 97.7728 13.1549V24.7273H93.5276V13.192C93.5276 12.7469 93.4913 12.3389 93.4188 11.968C93.3462 11.5724 93.2011 11.2385 92.9834 10.9665C92.7899 10.6945 92.4996 10.4844 92.1126 10.336C91.7256 10.1629 91.2055 10.0764 90.5524 10.0764H89.6816C89.0527 10.0764 88.5326 10.1629 88.1214 10.336C87.7344 10.4844 87.432 10.6945 87.2143 10.9665C86.9966 11.2385 86.8394 11.5724 86.7426 11.968C86.6701 12.3389 86.6338 12.7469 86.6338 13.192V24.7273H82.3886V5.848H86.6338V6.40437C87.5772 6.03346 88.581 5.848 89.6453 5.848H91.2418C92.2093 5.848 93.068 5.99637 93.8179 6.29309C94.5678 6.58982 95.2088 6.99782 95.7409 7.51709C96.3214 6.99782 96.9987 6.58982 97.7728 6.29309C98.5468 5.99637 99.4176 5.848 100.385 5.848H102.272C103.336 5.848 104.28 6.03346 105.102 6.40437C105.924 6.77527 106.602 7.26982 107.134 7.888C107.69 8.48146 108.101 9.17382 108.367 9.96509C108.658 10.7316 108.803 11.5105 108.803 12.3018V24.7273H104.594V13.192C104.594 12.7469 104.558 12.3389 104.485 11.968C104.413 11.5724 104.267 11.2385 104.05 10.9665C103.832 10.6945 103.53 10.4844 103.143 10.336C102.756 10.1629 102.248 10.0764 101.619 10.0764H100.712Z" fill="#7B13FF"/>
<path d="M111.393 12.5615C111.393 11.6465 111.562 10.7935 111.901 10.0022C112.24 9.18618 112.687 8.46909 113.243 7.85091C113.8 7.23273 114.441 6.75055 115.166 6.40437C115.892 6.03346 116.618 5.848 117.343 5.848H121.48C122.423 5.848 123.258 6.05818 123.983 6.47855C124.733 6.87418 125.35 7.39346 125.834 8.03637C126.342 8.65455 126.729 9.35928 126.995 10.1505C127.285 10.9171 127.43 11.6713 127.43 12.4131V17.1978H115.674V18.1993C115.674 19.0895 115.916 19.72 116.4 20.0909C116.884 20.4618 117.525 20.6473 118.323 20.6473H126.777V24.8015H117.38C116.557 24.8015 115.783 24.6407 115.058 24.3193C114.332 23.9731 113.691 23.5156 113.135 22.9469C112.602 22.3782 112.179 21.6982 111.865 20.9069C111.55 20.1156 111.393 19.2502 111.393 18.3105V12.5615ZM115.711 13.6742H123.221V13.4887C123.221 12.5244 122.979 11.7331 122.496 11.1149C122.012 10.472 121.359 10.1505 120.536 10.1505H118.287C117.9 10.1505 117.549 10.2495 117.235 10.4473C116.92 10.6204 116.654 10.8553 116.436 11.152C116.219 11.4487 116.037 11.8073 115.892 12.2276C115.771 12.6233 115.711 13.0436 115.711 13.4887V13.6742Z" fill="#7B13FF"/>
<path d="M142.882 9.52H135.661C135.347 9.52 135.081 9.58182 134.863 9.70546C134.67 9.80436 134.5 9.95273 134.355 10.1505C134.21 10.3484 134.101 10.5709 134.029 10.8182C133.956 11.0407 133.92 11.2633 133.92 11.4858C133.92 11.9556 134.065 12.3884 134.355 12.784C134.67 13.1549 135.045 13.3404 135.48 13.3404H139.544C140.39 13.3404 141.128 13.4887 141.757 13.7855C142.41 14.0822 142.942 14.4902 143.353 15.0095C143.789 15.5287 144.103 16.1469 144.297 16.864C144.514 17.5811 144.623 18.3476 144.623 19.1636V19.2749C144.623 20.0909 144.49 20.8327 144.224 21.5004C143.982 22.168 143.632 22.7367 143.172 23.2065C142.712 23.6764 142.168 24.0473 141.539 24.3193C140.91 24.5913 140.245 24.7273 139.544 24.7273H130.763V21.0553H138.31C138.866 21.0553 139.374 20.8945 139.834 20.5731C140.318 20.2516 140.572 19.7695 140.596 19.1265V19.1636C140.596 18.7927 140.523 18.4836 140.378 18.2364C140.257 17.9891 140.088 17.7913 139.87 17.6429C139.653 17.4698 139.411 17.3462 139.145 17.272C138.878 17.1978 138.6 17.1607 138.31 17.1607H135.045C133.98 17.1607 133.097 16.9876 132.396 16.6415C131.719 16.2953 131.174 15.8502 130.763 15.3062C130.376 14.7622 130.11 14.144 129.965 13.4516C129.82 12.7593 129.747 12.0545 129.747 11.3375C129.747 10.5956 129.856 9.87855 130.074 9.18618C130.291 8.49382 130.606 7.888 131.017 7.36873C131.452 6.82473 131.985 6.40437 132.614 6.10764C133.242 5.81091 133.956 5.66255 134.754 5.66255H142.882V9.52Z" fill="#7B13FF"/>
<path d="M146.86 11.8196C146.932 11.0284 147.101 10.2742 147.368 9.55709C147.658 8.84 148.069 8.20946 148.601 7.66546C149.133 7.12146 149.799 6.68873 150.597 6.36727C151.395 6.02109 152.314 5.848 153.354 5.848H155.531C156.62 5.848 157.563 6.03346 158.361 6.40437C159.184 6.77527 159.861 7.26982 160.393 7.888C160.925 8.48146 161.325 9.17382 161.591 9.96509C161.857 10.7316 161.99 11.5105 161.99 12.3018V24.7273H151.685C150.887 24.7273 150.173 24.5789 149.545 24.2822C148.916 23.9607 148.383 23.5527 147.948 23.0582C147.537 22.5389 147.222 21.9331 147.005 21.2407C146.811 20.5484 146.714 19.8065 146.714 19.0153C146.714 18.2487 146.823 17.5316 147.041 16.864C147.259 16.1964 147.573 15.6276 147.984 15.1578C148.396 14.6633 148.904 14.28 149.508 14.008C150.137 13.7113 150.839 13.5629 151.613 13.5629H157.817V13.192C157.817 12.7469 157.781 12.3389 157.708 11.968C157.636 11.5724 157.503 11.2385 157.309 10.9665C157.116 10.6945 156.825 10.4844 156.438 10.336C156.051 10.1629 155.531 10.0764 154.878 10.0764H153.971C153.004 10.0764 152.314 10.2247 151.903 10.5215C151.492 10.7935 151.214 11.2262 151.068 11.8196H146.86ZM150.597 19.0153C150.597 19.6582 150.718 20.1404 150.96 20.4618C151.226 20.7585 151.516 20.9069 151.83 20.9069H157.817V17.1236H151.83C151.516 17.1236 151.226 17.2844 150.96 17.6058C150.718 17.9273 150.597 18.3971 150.597 19.0153Z" fill="#7B13FF"/>
<path d="M172.852 5.848C173.916 5.848 174.86 6.02109 175.682 6.36727C176.529 6.68873 177.242 7.14618 177.823 7.73964C178.428 8.33309 178.887 9.05018 179.202 9.89091C179.516 10.7316 179.673 11.6836 179.673 12.7469V17.8284C179.673 18.8669 179.516 19.8189 179.202 20.6844C178.887 21.5251 178.428 22.2545 177.823 22.8727C177.242 23.4662 176.529 23.9236 175.682 24.2451C174.86 24.5665 173.916 24.7273 172.852 24.7273H171.691C170.627 24.7273 169.659 24.5542 168.788 24.208V31.1811H164.579V5.848H172.852ZM168.788 10.1135V17.68C168.788 18.496 169.03 19.1636 169.514 19.6829C169.998 20.2022 170.627 20.4618 171.401 20.4618H172.852C173.626 20.4618 174.267 20.2022 174.775 19.6829C175.283 19.1636 175.537 18.496 175.537 17.68V12.8582C175.537 12.0422 175.283 11.3869 174.775 10.8924C174.267 10.3731 173.626 10.1135 172.852 10.1135H168.788Z" fill="#7B13FF"/>
<path d="M190.179 5.848C191.243 5.848 192.186 6.02109 193.009 6.36727C193.855 6.68873 194.569 7.14618 195.15 7.73964C195.754 8.33309 196.214 9.05018 196.528 9.89091C196.843 10.7316 197 11.6836 197 12.7469V17.8284C197 18.8669 196.843 19.8189 196.528 20.6844C196.214 21.5251 195.754 22.2545 195.15 22.8727C194.569 23.4662 193.855 23.9236 193.009 24.2451C192.186 24.5665 191.243 24.7273 190.179 24.7273H189.018C187.953 24.7273 186.986 24.5542 186.115 24.208V31.1811H181.906V5.848H190.179ZM186.115 10.1135V17.68C186.115 18.496 186.357 19.1636 186.841 19.6829C187.324 20.2022 187.953 20.4618 188.727 20.4618H190.179C190.953 20.4618 191.594 20.2022 192.102 19.6829C192.61 19.1636 192.864 18.496 192.864 17.68V12.8582C192.864 12.0422 192.61 11.3869 192.102 10.8924C191.594 10.3731 190.953 10.1135 190.179 10.1135H186.115Z" fill="#7B13FF"/>
<path d="M21.0828 3.73001C20.5212 0.99115 17.8644 -0.578195 15.3122 0.198593C12.6935 1.07062 11.6184 3.72351 12.2892 5.98121C13.1202 8.63533 15.7247 9.76558 17.9479 9.07352C20.2967 8.30755 21.5028 6.02264 21.0828 3.73001Z" fill="#7B13FF"/>
<path d="M28.7243 12.3636C26.2195 12.3636 24.1889 14.3725 24.1889 16.8504V17.1496C24.1889 19.6275 26.2195 21.6364 28.7243 21.6364C31.2291 21.6364 33.2597 19.6275 33.2597 17.1496V16.8504C33.2597 14.3722 31.2291 12.3636 28.7243 12.3636Z" fill="#7B13FF"/>
<path d="M4.53541 12.3636C2.03066 12.3636 0 14.3725 0 16.8504V17.1496C0 19.6275 2.03066 21.6364 4.53541 21.6364C7.04017 21.6364 9.07083 19.6275 9.07083 17.1496V16.8504C9.07083 14.3722 7.04017 12.3636 4.53541 12.3636Z" fill="#7B13FF"/>
<path d="M21.0828 28.4571C20.521 25.7184 17.8635 24.1491 15.3108 24.9259C12.7027 25.7941 11.6191 28.4154 12.2871 30.7113C13.1543 33.4206 15.7654 34.4794 17.9471 33.8003C20.2876 33.0372 21.5044 30.7574 21.0828 28.4571Z" fill="#7B13FF"/>
</svg>
